<mxfile host="app.diagrams.net" modified="2023-08-11T03:23:58.468Z" agent="Mozilla/5.0 (Windows NT 10.0; Win64; x64; rv:109.0) Gecko/20100101 Firefox/116.0" etag="GQPkH6ZRlPPlm4zJBa-2" version="21.6.6" type="github">
  <diagram id="oD5Fm9D1vG81Xl6FeBv_" name="Page-2">
    <mxGraphModel dx="1805" dy="1582" grid="1" gridSize="10" guides="1" tooltips="1" connect="1" arrows="1" fold="1" page="1" pageScale="1" pageWidth="850" pageHeight="1100" math="0" shadow="0">
      <root>
        <mxCell id="0" />
        <mxCell id="1" parent="0" />
        <mxCell id="mn8jNFhSd8WoDFh8BS2Q-16" style="edgeStyle=orthogonalEdgeStyle;rounded=0;orthogonalLoop=1;jettySize=auto;html=1;" parent="1" source="mn8jNFhSd8WoDFh8BS2Q-4" target="mn8jNFhSd8WoDFh8BS2Q-15" edge="1">
          <mxGeometry relative="1" as="geometry" />
        </mxCell>
        <mxCell id="mn8jNFhSd8WoDFh8BS2Q-4" value="" style="verticalLabelPosition=bottom;sketch=0;aspect=fixed;html=1;verticalAlign=top;strokeColor=none;align=center;outlineConnect=0;shape=mxgraph.citrix.1u_2u_server;" parent="1" vertex="1">
          <mxGeometry x="790" y="40.9" width="100" height="39.1" as="geometry" />
        </mxCell>
        <mxCell id="mn8jNFhSd8WoDFh8BS2Q-14" style="edgeStyle=orthogonalEdgeStyle;rounded=0;orthogonalLoop=1;jettySize=auto;html=1;" parent="1" source="mn8jNFhSd8WoDFh8BS2Q-5" target="mn8jNFhSd8WoDFh8BS2Q-4" edge="1">
          <mxGeometry relative="1" as="geometry" />
        </mxCell>
        <mxCell id="mn8jNFhSd8WoDFh8BS2Q-23" style="edgeStyle=orthogonalEdgeStyle;rounded=0;orthogonalLoop=1;jettySize=auto;html=1;" parent="1" source="mn8jNFhSd8WoDFh8BS2Q-5" target="mn8jNFhSd8WoDFh8BS2Q-22" edge="1">
          <mxGeometry relative="1" as="geometry" />
        </mxCell>
        <mxCell id="mn8jNFhSd8WoDFh8BS2Q-5" value="" style="verticalLabelPosition=bottom;sketch=0;aspect=fixed;html=1;verticalAlign=top;strokeColor=none;align=center;outlineConnect=0;shape=mxgraph.citrix.firewall;" parent="1" vertex="1">
          <mxGeometry x="425" y="-100" width="80.65" height="100" as="geometry" />
        </mxCell>
        <mxCell id="mn8jNFhSd8WoDFh8BS2Q-6" value="" style="verticalLabelPosition=bottom;sketch=0;aspect=fixed;html=1;verticalAlign=top;strokeColor=none;align=center;outlineConnect=0;shape=mxgraph.citrix.desktop;" parent="1" vertex="1">
          <mxGeometry x="230" y="380" width="89" height="98" as="geometry" />
        </mxCell>
        <mxCell id="mn8jNFhSd8WoDFh8BS2Q-7" value="" style="verticalLabelPosition=bottom;sketch=0;aspect=fixed;html=1;verticalAlign=top;strokeColor=none;align=center;outlineConnect=0;shape=mxgraph.citrix.desktop;" parent="1" vertex="1">
          <mxGeometry x="690" y="390" width="89" height="98" as="geometry" />
        </mxCell>
        <mxCell id="mn8jNFhSd8WoDFh8BS2Q-8" value="" style="verticalLabelPosition=bottom;sketch=0;aspect=fixed;html=1;verticalAlign=top;strokeColor=none;align=center;outlineConnect=0;shape=mxgraph.citrix.desktop;" parent="1" vertex="1">
          <mxGeometry x="450" y="430" width="89" height="98" as="geometry" />
        </mxCell>
        <mxCell id="mn8jNFhSd8WoDFh8BS2Q-9" value="" style="verticalLabelPosition=bottom;sketch=0;aspect=fixed;html=1;verticalAlign=top;strokeColor=none;align=center;outlineConnect=0;shape=mxgraph.citrix.desktop;" parent="1" vertex="1">
          <mxGeometry x="860" y="252" width="89" height="98" as="geometry" />
        </mxCell>
        <mxCell id="mn8jNFhSd8WoDFh8BS2Q-10" value="" style="verticalLabelPosition=bottom;sketch=0;aspect=fixed;html=1;verticalAlign=top;strokeColor=none;align=center;outlineConnect=0;shape=mxgraph.citrix.laptop_2;" parent="1" vertex="1">
          <mxGeometry x="10" y="290" width="116" height="86.5" as="geometry" />
        </mxCell>
        <mxCell id="mn8jNFhSd8WoDFh8BS2Q-13" style="edgeStyle=orthogonalEdgeStyle;rounded=0;orthogonalLoop=1;jettySize=auto;html=1;" parent="1" source="mn8jNFhSd8WoDFh8BS2Q-12" target="mn8jNFhSd8WoDFh8BS2Q-5" edge="1">
          <mxGeometry relative="1" as="geometry" />
        </mxCell>
        <mxCell id="mn8jNFhSd8WoDFh8BS2Q-12" value="" style="image;html=1;image=img/lib/clip_art/networking/Router_128x128.png" parent="1" vertex="1">
          <mxGeometry x="80" y="-280" width="80" height="80" as="geometry" />
        </mxCell>
        <mxCell id="mn8jNFhSd8WoDFh8BS2Q-17" style="edgeStyle=orthogonalEdgeStyle;rounded=0;orthogonalLoop=1;jettySize=auto;html=1;" parent="1" source="mn8jNFhSd8WoDFh8BS2Q-15" target="mn8jNFhSd8WoDFh8BS2Q-10" edge="1">
          <mxGeometry relative="1" as="geometry" />
        </mxCell>
        <mxCell id="mn8jNFhSd8WoDFh8BS2Q-18" style="edgeStyle=orthogonalEdgeStyle;rounded=0;orthogonalLoop=1;jettySize=auto;html=1;" parent="1" source="mn8jNFhSd8WoDFh8BS2Q-15" target="mn8jNFhSd8WoDFh8BS2Q-6" edge="1">
          <mxGeometry relative="1" as="geometry" />
        </mxCell>
        <mxCell id="mn8jNFhSd8WoDFh8BS2Q-19" style="edgeStyle=orthogonalEdgeStyle;rounded=0;orthogonalLoop=1;jettySize=auto;html=1;" parent="1" source="mn8jNFhSd8WoDFh8BS2Q-15" target="mn8jNFhSd8WoDFh8BS2Q-8" edge="1">
          <mxGeometry relative="1" as="geometry" />
        </mxCell>
        <mxCell id="mn8jNFhSd8WoDFh8BS2Q-20" style="edgeStyle=orthogonalEdgeStyle;rounded=0;orthogonalLoop=1;jettySize=auto;html=1;" parent="1" source="mn8jNFhSd8WoDFh8BS2Q-15" target="mn8jNFhSd8WoDFh8BS2Q-7" edge="1">
          <mxGeometry relative="1" as="geometry" />
        </mxCell>
        <mxCell id="mn8jNFhSd8WoDFh8BS2Q-21" style="edgeStyle=orthogonalEdgeStyle;rounded=0;orthogonalLoop=1;jettySize=auto;html=1;" parent="1" source="mn8jNFhSd8WoDFh8BS2Q-15" target="mn8jNFhSd8WoDFh8BS2Q-9" edge="1">
          <mxGeometry relative="1" as="geometry">
            <Array as="points">
              <mxPoint x="720" y="285" />
              <mxPoint x="720" y="285" />
            </Array>
          </mxGeometry>
        </mxCell>
        <mxCell id="12-7de9DKATEK8QoMxmk-33" style="edgeStyle=orthogonalEdgeStyle;rounded=0;orthogonalLoop=1;jettySize=auto;html=1;entryX=0;entryY=0;entryDx=0;entryDy=0;" edge="1" parent="1" source="mn8jNFhSd8WoDFh8BS2Q-15" target="12-7de9DKATEK8QoMxmk-32">
          <mxGeometry relative="1" as="geometry" />
        </mxCell>
        <mxCell id="mn8jNFhSd8WoDFh8BS2Q-15" value="" style="image;html=1;image=img/lib/clip_art/networking/Switch_128x128.png" parent="1" vertex="1">
          <mxGeometry x="455" y="170" width="110" height="110" as="geometry" />
        </mxCell>
        <mxCell id="mn8jNFhSd8WoDFh8BS2Q-30" style="edgeStyle=orthogonalEdgeStyle;rounded=0;orthogonalLoop=1;jettySize=auto;html=1;entryX=1;entryY=0.75;entryDx=0;entryDy=0;" parent="1" source="mn8jNFhSd8WoDFh8BS2Q-22" target="mn8jNFhSd8WoDFh8BS2Q-25" edge="1">
          <mxGeometry relative="1" as="geometry" />
        </mxCell>
        <mxCell id="mn8jNFhSd8WoDFh8BS2Q-31" style="edgeStyle=orthogonalEdgeStyle;rounded=0;orthogonalLoop=1;jettySize=auto;html=1;" parent="1" source="mn8jNFhSd8WoDFh8BS2Q-22" target="mn8jNFhSd8WoDFh8BS2Q-28" edge="1">
          <mxGeometry relative="1" as="geometry" />
        </mxCell>
        <mxCell id="mn8jNFhSd8WoDFh8BS2Q-32" style="edgeStyle=orthogonalEdgeStyle;rounded=0;orthogonalLoop=1;jettySize=auto;html=1;" parent="1" source="mn8jNFhSd8WoDFh8BS2Q-22" target="mn8jNFhSd8WoDFh8BS2Q-29" edge="1">
          <mxGeometry relative="1" as="geometry" />
        </mxCell>
        <mxCell id="mn8jNFhSd8WoDFh8BS2Q-33" style="edgeStyle=orthogonalEdgeStyle;rounded=0;orthogonalLoop=1;jettySize=auto;html=1;" parent="1" source="mn8jNFhSd8WoDFh8BS2Q-22" target="mn8jNFhSd8WoDFh8BS2Q-27" edge="1">
          <mxGeometry relative="1" as="geometry" />
        </mxCell>
        <mxCell id="mn8jNFhSd8WoDFh8BS2Q-34" style="edgeStyle=orthogonalEdgeStyle;rounded=0;orthogonalLoop=1;jettySize=auto;html=1;entryX=0.238;entryY=-0.08;entryDx=0;entryDy=0;entryPerimeter=0;" parent="1" source="mn8jNFhSd8WoDFh8BS2Q-22" target="mn8jNFhSd8WoDFh8BS2Q-26" edge="1">
          <mxGeometry relative="1" as="geometry" />
        </mxCell>
        <mxCell id="mn8jNFhSd8WoDFh8BS2Q-22" value="" style="image;points=[];aspect=fixed;html=1;align=center;shadow=0;dashed=0;image=img/lib/allied_telesis/wireless/Access_Point_Indoor.svg;" parent="1" vertex="1">
          <mxGeometry x="230" y="-70" width="36.6" height="54.6" as="geometry" />
        </mxCell>
        <mxCell id="mn8jNFhSd8WoDFh8BS2Q-25" value="" style="image;aspect=fixed;perimeter=ellipsePerimeter;html=1;align=center;shadow=0;dashed=0;spacingTop=3;image=img/lib/active_directory/cell_phone.svg;" parent="1" vertex="1">
          <mxGeometry x="40" y="-110" width="21" height="50" as="geometry" />
        </mxCell>
        <mxCell id="mn8jNFhSd8WoDFh8BS2Q-26" value="" style="image;aspect=fixed;perimeter=ellipsePerimeter;html=1;align=center;shadow=0;dashed=0;spacingTop=3;image=img/lib/active_directory/cell_phone.svg;" parent="1" vertex="1">
          <mxGeometry x="30" y="30" width="21" height="50" as="geometry" />
        </mxCell>
        <mxCell id="mn8jNFhSd8WoDFh8BS2Q-27" value="" style="image;aspect=fixed;perimeter=ellipsePerimeter;html=1;align=center;shadow=0;dashed=0;spacingTop=3;image=img/lib/active_directory/cell_phone.svg;" parent="1" vertex="1">
          <mxGeometry x="100" y="123" width="21" height="50" as="geometry" />
        </mxCell>
        <mxCell id="mn8jNFhSd8WoDFh8BS2Q-28" value="" style="image;points=[];aspect=fixed;html=1;align=center;shadow=0;dashed=0;image=img/lib/allied_telesis/wireless/Laptop_Wireless.svg;" parent="1" vertex="1">
          <mxGeometry x="262" y="123" width="57.599999999999994" height="47.400000000000006" as="geometry" />
        </mxCell>
        <mxCell id="mn8jNFhSd8WoDFh8BS2Q-29" value="" style="image;points=[];aspect=fixed;html=1;align=center;shadow=0;dashed=0;image=img/lib/allied_telesis/wireless/Laptop_Wireless.svg;" parent="1" vertex="1">
          <mxGeometry x="139" y="10" width="57.599999999999994" height="47.400000000000006" as="geometry" />
        </mxCell>
        <mxCell id="12-7de9DKATEK8QoMxmk-2" value="Router" style="text;html=1;strokeColor=none;fillColor=none;align=center;verticalAlign=middle;whiteSpace=wrap;rounded=0;" vertex="1" parent="1">
          <mxGeometry x="136.6" y="-280" width="60" height="30" as="geometry" />
        </mxCell>
        <mxCell id="12-7de9DKATEK8QoMxmk-4" value="Access Point" style="text;html=1;strokeColor=none;fillColor=none;align=center;verticalAlign=middle;whiteSpace=wrap;rounded=0;" vertex="1" parent="1">
          <mxGeometry x="250" y="-80" width="60" height="30" as="geometry" />
        </mxCell>
        <mxCell id="12-7de9DKATEK8QoMxmk-5" value="Firewall" style="text;html=1;strokeColor=none;fillColor=none;align=center;verticalAlign=middle;whiteSpace=wrap;rounded=0;" vertex="1" parent="1">
          <mxGeometry x="470" y="-110" width="60" height="30" as="geometry" />
        </mxCell>
        <mxCell id="12-7de9DKATEK8QoMxmk-7" value="Wireless devices" style="text;html=1;strokeColor=none;fillColor=none;align=center;verticalAlign=middle;whiteSpace=wrap;rounded=0;" vertex="1" parent="1">
          <mxGeometry x="137" y="80" width="60" height="30" as="geometry" />
        </mxCell>
        <mxCell id="12-7de9DKATEK8QoMxmk-8" value="" style="endArrow=classic;html=1;rounded=0;" edge="1" parent="1">
          <mxGeometry width="50" height="50" relative="1" as="geometry">
            <mxPoint x="200" y="100" as="sourcePoint" />
            <mxPoint x="250" y="140" as="targetPoint" />
          </mxGeometry>
        </mxCell>
        <mxCell id="12-7de9DKATEK8QoMxmk-9" value="" style="endArrow=classic;html=1;rounded=0;entryX=0.75;entryY=1;entryDx=0;entryDy=0;exitX=0;exitY=0;exitDx=0;exitDy=0;" edge="1" parent="1" source="12-7de9DKATEK8QoMxmk-7" target="mn8jNFhSd8WoDFh8BS2Q-25">
          <mxGeometry width="50" height="50" relative="1" as="geometry">
            <mxPoint x="120" y="110" as="sourcePoint" />
            <mxPoint x="170" y="60" as="targetPoint" />
          </mxGeometry>
        </mxCell>
        <mxCell id="12-7de9DKATEK8QoMxmk-10" value="" style="endArrow=classic;html=1;rounded=0;entryX=0.885;entryY=1.055;entryDx=0;entryDy=0;entryPerimeter=0;exitX=0.5;exitY=0;exitDx=0;exitDy=0;" edge="1" parent="1" source="12-7de9DKATEK8QoMxmk-7" target="mn8jNFhSd8WoDFh8BS2Q-29">
          <mxGeometry width="50" height="50" relative="1" as="geometry">
            <mxPoint x="180" y="90" as="sourcePoint" />
            <mxPoint x="230" y="40" as="targetPoint" />
          </mxGeometry>
        </mxCell>
        <mxCell id="12-7de9DKATEK8QoMxmk-12" value="" style="endArrow=classic;html=1;rounded=0;entryX=1;entryY=0.75;entryDx=0;entryDy=0;exitX=0.25;exitY=1;exitDx=0;exitDy=0;" edge="1" parent="1" source="12-7de9DKATEK8QoMxmk-7" target="mn8jNFhSd8WoDFh8BS2Q-27">
          <mxGeometry width="50" height="50" relative="1" as="geometry">
            <mxPoint x="140" y="180" as="sourcePoint" />
            <mxPoint x="190" y="130" as="targetPoint" />
          </mxGeometry>
        </mxCell>
        <mxCell id="12-7de9DKATEK8QoMxmk-13" value="" style="endArrow=classic;html=1;rounded=0;entryX=1;entryY=0.75;entryDx=0;entryDy=0;exitX=0;exitY=0.5;exitDx=0;exitDy=0;" edge="1" parent="1" source="12-7de9DKATEK8QoMxmk-7" target="mn8jNFhSd8WoDFh8BS2Q-26">
          <mxGeometry width="50" height="50" relative="1" as="geometry">
            <mxPoint x="50" y="130" as="sourcePoint" />
            <mxPoint x="100" y="80" as="targetPoint" />
          </mxGeometry>
        </mxCell>
        <mxCell id="12-7de9DKATEK8QoMxmk-15" value="Server" style="text;html=1;strokeColor=none;fillColor=none;align=center;verticalAlign=middle;whiteSpace=wrap;rounded=0;" vertex="1" parent="1">
          <mxGeometry x="760" y="18.700000000000003" width="60" height="30" as="geometry" />
        </mxCell>
        <mxCell id="12-7de9DKATEK8QoMxmk-16" value="Network Switch" style="text;html=1;strokeColor=none;fillColor=none;align=center;verticalAlign=middle;whiteSpace=wrap;rounded=0;" vertex="1" parent="1">
          <mxGeometry x="425" y="173" width="60" height="30" as="geometry" />
        </mxCell>
        <mxCell id="12-7de9DKATEK8QoMxmk-18" value="Wired devices" style="text;html=1;strokeColor=none;fillColor=none;align=center;verticalAlign=middle;whiteSpace=wrap;rounded=0;" vertex="1" parent="1">
          <mxGeometry x="360" y="320" width="60" height="30" as="geometry" />
        </mxCell>
        <mxCell id="12-7de9DKATEK8QoMxmk-19" value="" style="endArrow=classic;html=1;rounded=0;exitX=0;exitY=0;exitDx=0;exitDy=0;" edge="1" parent="1" source="12-7de9DKATEK8QoMxmk-18" target="mn8jNFhSd8WoDFh8BS2Q-10">
          <mxGeometry width="50" height="50" relative="1" as="geometry">
            <mxPoint x="240" y="560" as="sourcePoint" />
            <mxPoint x="290" y="510" as="targetPoint" />
          </mxGeometry>
        </mxCell>
        <mxCell id="12-7de9DKATEK8QoMxmk-20" value="" style="endArrow=classic;html=1;rounded=0;exitX=0.25;exitY=0;exitDx=0;exitDy=0;" edge="1" parent="1" source="12-7de9DKATEK8QoMxmk-18" target="mn8jNFhSd8WoDFh8BS2Q-6">
          <mxGeometry width="50" height="50" relative="1" as="geometry">
            <mxPoint x="230" y="540" as="sourcePoint" />
            <mxPoint x="280" y="490" as="targetPoint" />
          </mxGeometry>
        </mxCell>
        <mxCell id="12-7de9DKATEK8QoMxmk-21" value="" style="endArrow=classic;html=1;rounded=0;exitX=0.5;exitY=0;exitDx=0;exitDy=0;" edge="1" parent="1" source="12-7de9DKATEK8QoMxmk-18" target="mn8jNFhSd8WoDFh8BS2Q-8">
          <mxGeometry width="50" height="50" relative="1" as="geometry">
            <mxPoint x="390" y="570" as="sourcePoint" />
            <mxPoint x="440" y="520" as="targetPoint" />
          </mxGeometry>
        </mxCell>
        <mxCell id="12-7de9DKATEK8QoMxmk-22" value="" style="endArrow=classic;html=1;rounded=0;exitX=0.75;exitY=0;exitDx=0;exitDy=0;" edge="1" parent="1" source="12-7de9DKATEK8QoMxmk-18" target="mn8jNFhSd8WoDFh8BS2Q-7">
          <mxGeometry width="50" height="50" relative="1" as="geometry">
            <mxPoint x="650" y="560" as="sourcePoint" />
            <mxPoint x="700" y="510" as="targetPoint" />
          </mxGeometry>
        </mxCell>
        <mxCell id="12-7de9DKATEK8QoMxmk-23" value="" style="endArrow=classic;html=1;rounded=0;exitX=1;exitY=0;exitDx=0;exitDy=0;" edge="1" parent="1" source="12-7de9DKATEK8QoMxmk-18" target="mn8jNFhSd8WoDFh8BS2Q-9">
          <mxGeometry width="50" height="50" relative="1" as="geometry">
            <mxPoint x="860" y="420" as="sourcePoint" />
            <mxPoint x="910" y="370" as="targetPoint" />
          </mxGeometry>
        </mxCell>
        <mxCell id="12-7de9DKATEK8QoMxmk-24" value="" style="image;html=1;image=img/lib/clip_art/networking/Router_128x128.png" vertex="1" parent="1">
          <mxGeometry x="-600" y="-280" width="80" height="80" as="geometry" />
        </mxCell>
        <mxCell id="12-7de9DKATEK8QoMxmk-26" value="" style="endArrow=classic;startArrow=classic;html=1;rounded=0;exitX=1;exitY=0.5;exitDx=0;exitDy=0;entryX=0;entryY=0.5;entryDx=0;entryDy=0;" edge="1" parent="1" source="12-7de9DKATEK8QoMxmk-24" target="mn8jNFhSd8WoDFh8BS2Q-12">
          <mxGeometry width="50" height="50" relative="1" as="geometry">
            <mxPoint x="-200" y="-170" as="sourcePoint" />
            <mxPoint x="-150" y="-220" as="targetPoint" />
          </mxGeometry>
        </mxCell>
        <mxCell id="12-7de9DKATEK8QoMxmk-28" value="Router " style="text;strokeColor=none;fillColor=none;align=left;verticalAlign=middle;spacingLeft=4;spacingRight=4;overflow=hidden;points=[[0,0.5],[1,0.5]];portConstraint=eastwest;rotatable=0;whiteSpace=wrap;html=1;" vertex="1" parent="1">
          <mxGeometry x="-610" y="-280" width="80" height="30" as="geometry" />
        </mxCell>
        <mxCell id="12-7de9DKATEK8QoMxmk-31" value="Traffic between routers" style="text;strokeColor=none;fillColor=none;align=left;verticalAlign=middle;spacingLeft=4;spacingRight=4;overflow=hidden;points=[[0,0.5],[1,0.5]];portConstraint=eastwest;rotatable=0;whiteSpace=wrap;html=1;" vertex="1" parent="1">
          <mxGeometry x="-220" y="-280" width="80" height="30" as="geometry" />
        </mxCell>
        <mxCell id="12-7de9DKATEK8QoMxmk-32" value="" style="image;html=1;image=img/lib/clip_art/computers/Printer_128x128.png" vertex="1" parent="1">
          <mxGeometry x="820" y="380" width="80" height="80" as="geometry" />
        </mxCell>
        <mxCell id="12-7de9DKATEK8QoMxmk-34" value="Printer" style="text;html=1;strokeColor=none;fillColor=none;align=center;verticalAlign=middle;whiteSpace=wrap;rounded=0;" vertex="1" parent="1">
          <mxGeometry x="860" y="376.5" width="60" height="30" as="geometry" />
        </mxCell>
      </root>
    </mxGraphModel>
  </diagram>
</mxfile>
